<?xml version="1.0" encoding="utf-8"?>
<!-- Generator: Adobe Illustrator 16.0.0, SVG Export Plug-In . SVG Version: 6.00 Build 0)  -->
<!DOCTYPE svg PUBLIC "-//W3C//DTD SVG 1.1//EN" "http://www.w3.org/Graphics/SVG/1.1/DTD/svg11.dtd">
<svg version="1.1" id="Layer_1" xmlns="http://www.w3.org/2000/svg" xmlns:xlink="http://www.w3.org/1999/xlink" x="0px" y="0px"
	 width="20px" height="40px" viewBox="0 0 20 40" enable-background="new 0 0 20 40" xml:space="preserve">
<g>
	<g>
		<path d="M1.248,17.556V2.575c0-0.689,0.562-1.249,1.249-1.249H14.98c0.688,0,1.248,0.56,1.248,1.249v7.339l1.248-1.249v-6.09
			c0-1.379-1.117-2.497-2.496-2.497H2.497C1.118,0.078,0,1.196,0,2.575v14.98c0,1.379,1.118,2.497,2.497,2.497h6.866v-1.248H2.497
			C1.81,18.805,1.248,18.245,1.248,17.556z M13.732,3.823H3.745v1.249h9.987V3.823z M13.732,6.32H3.745v1.248h9.987V6.32z
			 M13.732,8.817H3.745v1.248h9.987V8.817z M3.745,12.563h4.994v-1.249H3.745V12.563z M19.609,11.313l-0.883-0.882
			c-0.244-0.244-0.563-0.366-0.883-0.366c-0.32,0-0.639,0.122-0.883,0.366l-5.359,5.359c-0.244,0.244-0.99,1.187-0.99,1.506
			l-0.625,2.756l2.755-0.625c0,0,1.263-0.746,1.507-0.99l5.358-5.359C20.098,12.592,20.098,11.801,19.609,11.313z M13.809,17.997
			c-0.07,0.066-0.314,0.232-0.613,0.422l-1.617-1.618c0.166-0.228,0.352-0.456,0.464-0.569l4.035-4.035l1.766,1.766L13.809,17.997z"
			/>
	</g>
</g>
<g>
	<g>
		<path fill="#177F00" d="M1.248,37.529V22.55c0-0.688,0.562-1.249,1.249-1.249H14.98c0.688,0,1.248,0.561,1.248,1.249v7.339
			l1.248-1.248V22.55c0-1.379-1.117-2.497-2.496-2.497H2.497C1.118,20.053,0,21.17,0,22.55v14.979c0,1.38,1.118,2.498,2.497,2.498
			h6.866v-1.248H2.497C1.81,38.779,1.248,38.219,1.248,37.529z M13.732,23.798H3.745v1.249h9.987V23.798z M13.732,26.295H3.745
			v1.248h9.987V26.295z M13.732,28.792H3.745v1.248h9.987V28.792z M3.745,32.537h4.994v-1.249H3.745V32.537z M19.609,31.288
			l-0.883-0.882c-0.244-0.244-0.563-0.366-0.883-0.366c-0.32,0-0.639,0.122-0.883,0.366l-5.359,5.359
			c-0.244,0.243-0.99,1.187-0.99,1.506l-0.625,2.756l2.755-0.625c0,0,1.263-0.746,1.507-0.99l5.358-5.359
			C20.098,32.566,20.098,31.775,19.609,31.288z M13.809,37.971c-0.07,0.066-0.314,0.232-0.613,0.422l-1.617-1.617
			c0.166-0.228,0.352-0.457,0.464-0.569l4.035-4.035l1.766,1.767L13.809,37.971z"/>
	</g>
</g>
</svg>
