<?xml version="1.0" encoding="utf-8"?>
<!-- Generator: Adobe Illustrator 16.0.0, SVG Export Plug-In . SVG Version: 6.00 Build 0)  -->
<!DOCTYPE svg PUBLIC "-//W3C//DTD SVG 1.1//EN" "http://www.w3.org/Graphics/SVG/1.1/DTD/svg11.dtd">
<svg version="1.1" id="Capa_1" xmlns="http://www.w3.org/2000/svg" xmlns:xlink="http://www.w3.org/1999/xlink" x="0px" y="0px"
	 width="18.007px" height="18.007px" viewBox="0 0.008 18.007 18.007" enable-background="new 0 0.008 18.007 18.007"
	 xml:space="preserve">
<g>
	<g id="banknote">
		<path fill="#010002" d="M17.677,5.965L12.05,0.337c-0.278-0.278-0.684-0.391-1.067-0.296c-0.202,0.05-0.382,0.154-0.525,0.296
			C10.33,0.466,10.234,0.623,10.179,0.8C9.924,1.627,9.483,2.345,8.831,2.997c-0.871,0.87-2.005,1.53-3.206,2.227
			c-1.274,0.738-2.59,1.503-3.669,2.582C1.04,8.724,0.416,9.744,0.05,10.93c-0.124,0.4-0.016,0.833,0.279,1.128l5.627,5.627
			c0.279,0.279,0.684,0.392,1.067,0.297c0.202-0.051,0.383-0.154,0.525-0.297c0.128-0.127,0.224-0.286,0.279-0.463
			c0.255-0.827,0.696-1.545,1.349-2.197c0.871-0.871,2.004-1.528,3.206-2.226c1.273-0.739,2.59-1.504,3.668-2.583
			c0.917-0.917,1.541-1.938,1.907-3.124C18.08,6.693,17.972,6.26,17.677,5.965z M6.752,16.889c-1.863-1.863-3.763-3.764-5.626-5.627
			c1.599-5.177,8.53-4.951,10.128-10.129c1.864,1.864,3.764,3.764,5.628,5.627C15.282,11.937,8.351,11.712,6.752,16.889z"/>
		<path fill="#010002" d="M11.008,8.392c-0.184-0.154-0.368-0.258-0.554-0.31c-0.184-0.052-0.369-0.073-0.556-0.06
			C9.714,8.037,9.525,8.079,9.336,8.152c-0.189,0.074-0.38,0.154-0.571,0.247C8.462,8.052,8.16,7.708,7.858,7.389
			c0.136-0.124,0.269-0.186,0.396-0.19c0.127-0.005,0.25,0.008,0.367,0.037C8.74,7.266,8.848,7.292,8.948,7.311
			c0.101,0.02,0.189-0.002,0.266-0.067c0.082-0.071,0.127-0.162,0.133-0.271c0.005-0.111-0.036-0.219-0.129-0.324
			C9.099,6.512,8.957,6.43,8.785,6.4C8.616,6.37,8.443,6.372,8.261,6.411C8.084,6.452,7.914,6.519,7.754,6.614
			C7.594,6.708,7.465,6.805,7.369,6.9C7.332,6.865,7.296,6.83,7.26,6.796C7.219,6.759,7.168,6.739,7.108,6.74
			c-0.062,0-0.112,0.026-0.154,0.075c-0.041,0.047-0.059,0.103-0.052,0.16c0.006,0.061,0.03,0.106,0.071,0.142
			C7.01,7.148,7.047,7.177,7.084,7.21C6.939,7.384,6.821,7.576,6.727,7.779c-0.094,0.203-0.151,0.404-0.172,0.6
			c-0.021,0.197-0.001,0.377,0.06,0.544c0.06,0.168,0.171,0.312,0.333,0.447c0.266,0.22,0.577,0.313,0.939,0.292
			c0.361-0.021,0.75-0.129,1.168-0.354c0.332,0.384,0.665,0.765,0.997,1.119c-0.141,0.119-0.264,0.187-0.373,0.209
			c-0.108,0.023-0.205,0.021-0.293-0.006c-0.088-0.027-0.169-0.067-0.244-0.117c-0.075-0.052-0.148-0.096-0.223-0.132
			c-0.072-0.036-0.146-0.056-0.223-0.057c-0.077-0.001-0.159,0.036-0.249,0.113c-0.092,0.081-0.138,0.174-0.138,0.279
			c0,0.104,0.048,0.21,0.143,0.319c0.096,0.107,0.22,0.198,0.37,0.269s0.32,0.117,0.507,0.129c0.187,0.013,0.384-0.016,0.592-0.092
			c0.209-0.076,0.415-0.213,0.619-0.418c0.098,0.095,0.197,0.187,0.295,0.274c0.042,0.036,0.092,0.054,0.153,0.05
			c0.059-0.002,0.111-0.03,0.152-0.08c0.042-0.051,0.059-0.106,0.052-0.165c-0.005-0.059-0.03-0.105-0.07-0.137
			c-0.099-0.08-0.198-0.163-0.297-0.25c0.168-0.207,0.304-0.424,0.404-0.64c0.1-0.216,0.159-0.425,0.179-0.619
			c0.02-0.195-0.003-0.37-0.067-0.53C11.28,8.664,11.168,8.526,11.008,8.392z M7.862,8.774C7.702,8.781,7.563,8.727,7.442,8.61
			C7.39,8.56,7.354,8.5,7.332,8.429C7.309,8.357,7.301,8.279,7.31,8.194c0.008-0.084,0.033-0.173,0.077-0.262
			C7.429,7.843,7.491,7.754,7.57,7.668c0.285,0.284,0.57,0.595,0.855,0.917C8.209,8.703,8.021,8.767,7.862,8.774z M10.516,9.901
			c-0.05,0.093-0.108,0.176-0.177,0.249c-0.315-0.318-0.63-0.668-0.945-1.028C9.474,9.086,9.559,9.048,9.65,9.01
			c0.091-0.038,0.183-0.063,0.274-0.08c0.093-0.014,0.186-0.01,0.278,0.012c0.091,0.024,0.178,0.073,0.259,0.151
			c0.079,0.079,0.129,0.162,0.149,0.25c0.022,0.09,0.023,0.181,0.008,0.274C10.601,9.712,10.568,9.806,10.516,9.901z"/>
		<path fill="#010002" d="M8.281,12.489L8.281,12.489c-0.353,0.271-0.696,0.555-1.014,0.874c-0.305,0.306-0.582,0.627-0.822,0.957
			l-0.384,0.525l0.001,0.001c-0.07,0.109-0.059,0.257,0.037,0.353c0.109,0.11,0.289,0.11,0.399,0
			c0.017-0.017,0.031-0.036,0.042-0.056L6.9,14.65c0.223-0.305,0.48-0.604,0.766-0.889c0.315-0.316,0.608-0.559,0.964-0.83
			l-0.001-0.001c0.01-0.008,0.02-0.014,0.028-0.023c0.11-0.11,0.11-0.29,0-0.399C8.555,12.404,8.392,12.399,8.281,12.489z"/>
		<path fill="#010002" d="M10.341,4.349c-0.294,0.294-0.613,0.56-0.944,0.813C9.374,5.174,9.351,5.189,9.332,5.209
			c-0.111,0.111-0.111,0.292,0,0.403C9.439,5.72,9.613,5.723,9.725,5.62l0.002,0.001c0.352-0.27,0.694-0.556,1.013-0.874
			c0.306-0.306,0.581-0.626,0.822-0.956l0.385-0.527l-0.001-0.001c0.096-0.112,0.091-0.279-0.014-0.385
			c-0.111-0.111-0.291-0.111-0.401,0c-0.02,0.021-0.036,0.044-0.049,0.068L11.106,3.46C10.884,3.766,10.626,4.064,10.341,4.349z"/>
	</g>
</g>
</svg>
