<?xml version="1.0" encoding="utf-8"?>
<!-- Generator: Adobe Illustrator 16.0.0, SVG Export Plug-In . SVG Version: 6.00 Build 0)  -->
<!DOCTYPE svg PUBLIC "-//W3C//DTD SVG 1.1//EN" "http://www.w3.org/Graphics/SVG/1.1/DTD/svg11.dtd">
<svg version="1.1" id="Capa_1" xmlns="http://www.w3.org/2000/svg" xmlns:xlink="http://www.w3.org/1999/xlink" x="0px" y="0px"
	 width="31px" height="70px" viewBox="0 0 31 70" enable-background="new 0 0 31 70" xml:space="preserve">
<text transform="matrix(1 0 0 1 17.5449 28.355)" font-family="'ComicSansMS'" font-size="10">1</text>
<g>
	<path d="M25.25,12.303c-0.32-0.109-0.666,0.063-0.777,0.385c-0.189,0.567-0.802,0.872-1.363,0.679
		c-1.199-0.407-2.51,0.24-2.916,1.45c-0.109,0.322,0.061,0.672,0.381,0.782c0.064,0.023,0.134,0.033,0.197,0.033
		c0.254,0,0.494-0.162,0.58-0.419c0.188-0.565,0.803-0.869,1.362-0.677c1.2,0.409,2.513-0.24,2.917-1.451
		C25.742,12.764,25.568,12.413,25.25,12.303z"/>
	<path d="M26.697,8.008c-0.32-0.11-0.668,0.064-0.775,0.386c-0.191,0.567-0.804,0.871-1.365,0.678
		c-0.582-0.199-1.205-0.158-1.759,0.117c-0.55,0.273-0.961,0.747-1.159,1.333c-0.107,0.322,0.063,0.672,0.383,0.782
		c0.064,0.023,0.131,0.033,0.195,0.033c0.256,0,0.493-0.161,0.579-0.418c0.095-0.274,0.286-0.497,0.544-0.624
		c0.26-0.128,0.553-0.147,0.823-0.054c1.2,0.409,2.51-0.24,2.915-1.45C27.186,8.469,27.016,8.118,26.697,8.008z"/>
	<path d="M27.432,4.07c-0.32-0.11-0.666,0.063-0.775,0.386c-0.068,0.203-0.211,0.367-0.401,0.461
		c-0.188,0.094-0.405,0.108-0.606,0.038c-1.056-0.358-2.203,0.212-2.563,1.272C22.979,6.549,23.148,6.9,23.468,7.01
		c0.066,0.021,0.132,0.032,0.198,0.032c0.253,0,0.494-0.161,0.58-0.418c0.141-0.418,0.593-0.643,1.007-0.501
		c0.511,0.175,1.06,0.139,1.542-0.101c0.484-0.24,0.846-0.656,1.02-1.17C27.924,4.53,27.753,4.18,27.432,4.07z"/>
	<path d="M27.55,15.423c1.216-3.98,1.882-7.879,1.979-11.593c0.031-1.168-0.538-2.728-1.682-3.449
		c-0.547-0.348-1.445-0.633-2.609-0.029c-1.828,0.95-3.135,3.744-4.184,5.991c-0.062,0.129-0.119,0.255-0.18,0.38
		c-0.232-1.074-0.938-1.994-1.938-2.473c-0.235-1.144-1.138-2.04-2.271-2.273c-0.013-0.063-0.026-0.126-0.045-0.189
		c-0.231-0.803-0.937-1.406-1.749-1.505c-0.459-0.054-0.913,0.042-1.3,0.27c-0.332-0.186-0.702-0.285-1.083-0.285
		c-1.064,0-1.958,0.748-2.19,1.749C9.139,2.335,8.285,3.411,8.276,4.661C6.95,5.007,5.982,6.214,5.982,7.651
		c0,0.38,0.071,0.758,0.208,1.113c-0.346,0.428-0.536,0.965-0.536,1.528c0,0.337,0.069,0.662,0.199,0.964
		c-0.611-0.672-1.471-1.222-2.437-1.186c-0.337,0.011-0.602,0.295-0.592,0.635c0.01,0.334,0.282,0.598,0.611,0.598
		c0.021,0,0.04-0.001,0.06-0.001c0.572,0,1.105,0.383,1.493,0.827c-0.97,0.281-2.139,0.74-2.685,1.776
		c-0.328,0.626-0.367,1.394-0.149,2.271c-0.104,0.178-0.164,0.386-0.153,0.606l1.042,14.908c0.094,1.871,1.624,3.334,3.481,3.334
		h17.171c1.856,0,3.387-1.463,3.48-3.322l1.068-15.427c0-0.004,0-0.007,0-0.011c0.02-0.285-0.11-0.55-0.344-0.711
		C27.793,15.48,27.673,15.439,27.55,15.423z M7.315,9.364l0.4-0.333L7.457,8.579c-0.164-0.283-0.25-0.604-0.25-0.928
		c0-0.999,0.777-1.813,1.769-1.855l0.742-0.032L9.544,5.037C9.515,4.915,9.5,4.794,9.5,4.68c0-0.794,0.615-1.463,1.402-1.523
		l0.564-0.043V2.501c0.018-0.555,0.472-1,1.027-1c0.319,0,0.548,0.146,0.683,0.27l0.429,0.391l0.411-0.409
		c0.188-0.188,0.447-0.275,0.714-0.244c0.328,0.039,0.625,0.296,0.72,0.627c0.032,0.11,0.041,0.218,0.028,0.327l-0.071,0.689h0.688
		c0.881,0,1.614,0.691,1.674,1.576l0.029,0.405l0.379,0.134c0.955,0.339,1.586,1.25,1.564,2.27c-0.012,0.436-0.15,0.856-0.401,1.223
		c-0.411-0.349-0.853-0.585-1.221-0.782c-0.099-0.051-0.19-0.1-0.285-0.153c-0.024-0.015-0.056-0.04-0.067-0.105
		c-0.017-0.089,0.02-0.196,0.084-0.272c0.27-0.313,0.375-0.737,0.289-1.138l-0.076-0.34c-0.071-0.343-0.274-0.636-0.567-0.826
		c-0.294-0.189-0.644-0.252-0.981-0.178L16.35,5c0,0.002-0.002,0-0.006,0.002l-1.795,0.395l-1.752,0.385
		c-0.34,0.075-0.63,0.279-0.819,0.576c-0.188,0.295-0.251,0.646-0.177,0.989l0.038,0.167v0.001c0,0,0,0.001,0,0.002l0.035,0.168
		c0.09,0.41,0.372,0.756,0.757,0.922c0.095,0.042,0.175,0.119,0.203,0.199c0.017,0.045,0.007,0.069-0.029,0.127c0,0,0,0,0,0.001
		c-0.061,0.083-0.125,0.165-0.192,0.25c-0.067,0.087-0.136,0.178-0.208,0.271c-0.022,0.032-0.045,0.064-0.069,0.096
		c-0.05,0.07-0.102,0.141-0.152,0.214c-0.027,0.041-0.054,0.082-0.081,0.124c-0.046,0.072-0.09,0.146-0.135,0.223
		c-0.027,0.044-0.051,0.088-0.075,0.135c-0.046,0.085-0.089,0.176-0.128,0.269c-0.018,0.039-0.038,0.077-0.054,0.118
		c-0.053,0.135-0.102,0.275-0.138,0.423c-0.007,0.024-0.01,0.048-0.014,0.073c-0.03,0.126-0.054,0.256-0.068,0.391
		c-0.007,0.055-0.008,0.111-0.011,0.168c-0.006,0.072-0.015,0.141-0.015,0.217c-0.003-0.003-0.006-0.007-0.008-0.01
		c-0.009-0.011-0.018-0.02-0.024-0.031c-0.106-0.142-0.213-0.271-0.321-0.396c-0.033-0.039-0.067-0.076-0.102-0.113
		c-0.089-0.099-0.179-0.19-0.27-0.276c-0.029-0.028-0.059-0.059-0.089-0.085c-0.115-0.104-0.23-0.198-0.345-0.281
		c-0.032-0.023-0.065-0.043-0.098-0.065c-0.087-0.059-0.175-0.112-0.262-0.161c-0.043-0.023-0.085-0.046-0.129-0.067
		c-0.09-0.045-0.183-0.083-0.275-0.117c-0.029-0.01-0.061-0.026-0.091-0.035c-0.1-0.032-0.201-0.058-0.303-0.078
		c-0.011-0.002-0.023-0.001-0.035-0.002c-0.02-0.004-0.04-0.011-0.063-0.015c-0.07-0.01-0.137-0.007-0.208-0.011
		c-0.048-0.002-0.096-0.014-0.145-0.014c-0.014,0-0.03,0.004-0.045,0.004c-0.096,0.001-0.188,0.012-0.279,0.024
		c-0.047,0.005-0.092,0.009-0.138,0.018c-0.121,0.021-0.237,0.053-0.354,0.089c-0.018,0.006-0.034,0.01-0.052,0.016
		c-0.305,0.104-0.594,0.251-0.864,0.429c-0.056-0.139-0.085-0.287-0.085-0.44C6.879,9.932,7.039,9.594,7.315,9.364z M16.123,13.465
		c-1.01,0.721-1.759,0.913-2.998,0.732l-0.37-1.713c-0.253-1.156,0.294-1.858,0.822-2.537c0.07-0.092,0.142-0.182,0.208-0.271
		c0-0.001,0-0.001,0-0.002c0.048-0.065,0.091-0.133,0.126-0.199c0.151-0.286,0.186-0.606,0.117-0.919l2.554-0.563
		c0.018,0.079,0.035,0.157,0.063,0.23c0.115,0.282,0.319,0.517,0.604,0.68c0.096,0.053,0.189,0.104,0.291,0.158
		c0.083,0.044,0.165,0.089,0.25,0.136c0.038,0.021,0.079,0.043,0.118,0.064c0.073,0.042,0.145,0.087,0.215,0.132
		c0.06,0.037,0.121,0.077,0.179,0.118c0.068,0.047,0.135,0.099,0.197,0.152c0.059,0.047,0.111,0.099,0.167,0.151
		c0.056,0.057,0.116,0.116,0.167,0.18c0.095,0.112,0.186,0.23,0.26,0.372c-0.26,0.577-0.504,1.165-0.738,1.759
		c-0.037,0.092-0.076,0.181-0.115,0.273C17.57,12.57,16.923,12.891,16.123,13.465z M17.68,13.939
		c-0.057,0.161-0.111,0.321-0.166,0.483c-0.039,0.116-0.082,0.23-0.119,0.347c-0.182,0.548-0.354,1.101-0.512,1.659l-0.406-0.246
		c-0.502-0.304-1.063-0.455-1.625-0.455c-0.009,0-0.017,0.001-0.023,0.001c-0.066-0.001-0.133,0.006-0.196,0.01
		c-0.046,0.003-0.093,0.004-0.139,0.009c-0.334,0.034-0.662,0.12-0.975,0.261l-0.117-0.539c0.176,0.014,0.352,0.03,0.517,0.03
		c1.066,0,1.926-0.321,2.913-1.028C17.143,14.248,17.417,14.079,17.68,13.939z M13.035,7.254c-0.029-0.135,0.06-0.273,0.192-0.303
		l1.794-0.396l1.59-0.35C16.627,6.202,16.643,6.2,16.657,6.2c0.116,0,0.225,0.083,0.25,0.2c0.019,0.09-0.015,0.16-0.037,0.193
		c-0.021,0.033-0.067,0.092-0.156,0.11l-3.378,0.745C13.201,7.478,13.063,7.388,13.035,7.254z M3.385,14.481
		c0.259-0.491,0.887-0.866,1.977-1.18c0.511-0.146,0.984-0.421,1.368-0.792c0.176-0.168,0.339-0.311,0.496-0.439
		c0.494-0.403,0.919-0.624,1.303-0.673c0.008-0.001,0.017-0.003,0.026-0.003c0.122-0.013,0.241-0.01,0.354,0.011
		C8.939,11.41,8.97,11.421,9,11.429c0.057,0.014,0.113,0.029,0.17,0.052c0.037,0.013,0.073,0.035,0.111,0.052
		c0.053,0.026,0.106,0.05,0.159,0.082c0.042,0.025,0.083,0.058,0.125,0.087c0.05,0.035,0.099,0.066,0.15,0.107
		c0.046,0.039,0.094,0.083,0.14,0.127c0.047,0.042,0.093,0.081,0.14,0.128c0.05,0.053,0.102,0.114,0.154,0.171
		c0.042,0.048,0.084,0.092,0.126,0.143c0.059,0.07,0.118,0.15,0.176,0.228c0.038,0.05,0.073,0.094,0.112,0.146
		c0.066,0.094,0.134,0.199,0.202,0.302c0.028,0.045,0.058,0.086,0.088,0.133c0.098,0.155,0.195,0.319,0.294,0.495
		c0.451,0.8,0.599,1.983,0.403,3.013c-0.033-0.003-0.063-0.007-0.097-0.013c-0.233-0.041-0.457-0.115-0.662-0.239l-0.437-0.264
		c-0.5-0.303-1.063-0.454-1.625-0.454c-0.006,0-0.013,0.001-0.021,0.001c-0.569-0.004-1.139,0.146-1.648,0.453l-0.21,0.129
		c-0.37,0.224-0.785,0.337-1.2,0.341c-0.416-0.003-0.83-0.115-1.2-0.341L3.628,15.81c0,0-0.001,0-0.001-0.001
		c-0.108-0.064-0.225-0.109-0.346-0.131C3.187,15.19,3.219,14.796,3.385,14.481z M25.96,31.628
		c-0.063,1.213-1.056,2.163-2.261,2.163H6.527c-1.207,0-2.198-0.95-2.26-2.174L3.248,17.044l0.533,0.321
		c0.577,0.349,1.225,0.52,1.87,0.516c0.647,0.004,1.294-0.167,1.872-0.516l0.211-0.128c0.3-0.182,0.639-0.273,0.977-0.276
		c0.337,0.003,0.675,0.094,0.977,0.276l0.436,0.264c0.551,0.334,1.177,0.476,1.795,0.443c0.055-0.003,0.11-0.003,0.165-0.008
		c0.007,0,0.012-0.004,0.021-0.004c0.417-0.048,0.827-0.18,1.204-0.397c0.036-0.014,0.075-0.015,0.107-0.034l0.437-0.264
		c0.3-0.182,0.637-0.273,0.975-0.276c0.338,0.003,0.675,0.094,0.977,0.276l0.438,0.264c0.463,0.279,0.979,0.424,1.496,0.446
		c0.011,0,0.021,0.001,0.031,0.001c0.18,0.006,0.357,0,0.535-0.025c0.104-0.013,0.199-0.039,0.299-0.062
		c0.049-0.012,0.099-0.022,0.146-0.037c0.271-0.075,0.535-0.174,0.784-0.324l0.438-0.264c0.299-0.182,0.637-0.273,0.975-0.276
		c0.339,0.002,0.676,0.094,0.979,0.276l0.436,0.264c0.504,0.305,1.072,0.456,1.639,0.453c0.008,0,0.021,0.001,0.027,0.001
		c0.552,0,1.102-0.144,1.593-0.435l1.2-0.537c0.027-0.012,0.045-0.034,0.07-0.049l0.092-0.042L25.96,31.628z M26.342,15.197
		c-0.039,0.129-0.129,0.389-0.254,0.746l-1.042,0.467c-0.024,0.01-0.045,0.021-0.065,0.035c-0.303,0.182-0.64,0.272-0.979,0.275
		c-0.337-0.003-0.673-0.093-0.977-0.275l-0.436-0.264c-0.501-0.303-1.064-0.455-1.625-0.455c-0.008,0-0.014,0.001-0.021,0.001
		c-0.568-0.003-1.139,0.146-1.647,0.454l-0.435,0.264c-0.243,0.146-0.51,0.219-0.784,0.249c0.017-0.053,0.034-0.105,0.05-0.158
		c0.169-0.574,0.348-1.141,0.537-1.702c0.07-0.213,0.145-0.425,0.221-0.637c0.156-0.445,0.321-0.885,0.492-1.322
		c0.073-0.196,0.15-0.393,0.227-0.587c0.537-1.311,1.125-2.583,1.773-3.802c0.24-0.456,0.504-1.021,0.784-1.619
		c0.92-1.967,2.181-4.661,3.637-5.419c0.532-0.276,0.993-0.282,1.402-0.023c0.711,0.448,1.127,1.581,1.106,2.373
		C28.212,7.442,27.55,11.277,26.342,15.197z"/>
	<path d="M5.673,26.507h4.281c0.338,0,0.611-0.276,0.611-0.617c0-0.342-0.273-0.617-0.611-0.617H5.673
		c-0.339,0-0.613,0.275-0.613,0.617C5.06,26.231,5.334,26.507,5.673,26.507z"/>
	<path d="M5.673,28.972h5.504c0.338,0,0.613-0.275,0.613-0.617c0-0.341-0.275-0.617-0.613-0.617H5.673
		c-0.339,0-0.613,0.275-0.613,0.617C5.06,28.697,5.334,28.972,5.673,28.972z"/>
	<path d="M12.4,30.205H5.673c-0.339,0-0.613,0.276-0.613,0.617c0,0.342,0.274,0.616,0.613,0.616H12.4
		c0.339,0,0.612-0.274,0.612-0.616C13.013,30.481,12.739,30.205,12.4,30.205z"/>
</g>
<text transform="matrix(1 0 0 1 17.5449 63.3555)" fill="#177F00" font-family="'ComicSansMS'" font-size="10">1</text>
<g>
	<path fill="#177F00" d="M25.25,47.303c-0.32-0.109-0.666,0.063-0.777,0.385c-0.189,0.567-0.802,0.873-1.363,0.68
		c-1.199-0.407-2.51,0.24-2.916,1.449c-0.109,0.322,0.061,0.673,0.381,0.783c0.064,0.022,0.134,0.032,0.197,0.032
		c0.254,0,0.494-0.162,0.58-0.419c0.188-0.564,0.803-0.869,1.362-0.677c1.2,0.409,2.513-0.24,2.917-1.451
		C25.742,47.764,25.568,47.413,25.25,47.303z"/>
	<path fill="#177F00" d="M26.697,43.008c-0.32-0.109-0.668,0.064-0.775,0.387c-0.191,0.566-0.804,0.871-1.365,0.678
		c-0.582-0.199-1.205-0.158-1.759,0.117c-0.55,0.272-0.961,0.746-1.159,1.332c-0.107,0.322,0.063,0.672,0.383,0.783
		c0.064,0.022,0.131,0.032,0.195,0.032c0.256,0,0.493-0.161,0.579-0.418c0.095-0.274,0.286-0.497,0.544-0.624
		c0.26-0.128,0.553-0.146,0.823-0.054c1.2,0.409,2.51-0.24,2.915-1.45C27.186,43.469,27.016,43.118,26.697,43.008z"/>
	<path fill="#177F00" d="M27.432,39.07c-0.32-0.11-0.666,0.063-0.775,0.386c-0.068,0.203-0.211,0.367-0.401,0.461
		c-0.188,0.094-0.405,0.108-0.606,0.038c-1.056-0.357-2.203,0.212-2.563,1.271c-0.107,0.322,0.063,0.674,0.382,0.783
		c0.066,0.021,0.132,0.032,0.198,0.032c0.253,0,0.494-0.161,0.58-0.418c0.141-0.418,0.593-0.644,1.007-0.501
		c0.511,0.175,1.06,0.139,1.542-0.102c0.484-0.239,0.846-0.655,1.02-1.17C27.924,39.53,27.753,39.18,27.432,39.07z"/>
	<path fill="#177F00" d="M27.55,50.423c1.216-3.979,1.882-7.879,1.979-11.593c0.031-1.168-0.538-2.729-1.682-3.449
		c-0.547-0.348-1.445-0.633-2.609-0.029c-1.828,0.95-3.135,3.744-4.184,5.991c-0.062,0.13-0.119,0.255-0.18,0.38
		c-0.232-1.074-0.938-1.994-1.938-2.473c-0.235-1.145-1.138-2.04-2.271-2.273c-0.013-0.063-0.026-0.125-0.045-0.188
		c-0.231-0.804-0.937-1.406-1.749-1.505c-0.459-0.054-0.913,0.042-1.3,0.27c-0.332-0.186-0.702-0.285-1.083-0.285
		c-1.064,0-1.958,0.748-2.19,1.75c-1.161,0.317-2.015,1.394-2.024,2.644c-1.326,0.346-2.294,1.553-2.294,2.989
		c0,0.381,0.071,0.759,0.208,1.113c-0.346,0.428-0.536,0.965-0.536,1.528c0,0.337,0.069,0.662,0.199,0.964
		c-0.611-0.672-1.471-1.222-2.437-1.186c-0.337,0.011-0.602,0.295-0.592,0.635c0.01,0.334,0.282,0.598,0.611,0.598
		c0.021,0,0.04-0.001,0.06-0.001c0.572,0,1.105,0.384,1.493,0.827c-0.97,0.281-2.139,0.74-2.685,1.776
		c-0.328,0.626-0.367,1.394-0.149,2.271c-0.104,0.179-0.164,0.386-0.153,0.606l1.042,14.908c0.094,1.871,1.624,3.334,3.481,3.334
		h17.171c1.856,0,3.387-1.463,3.48-3.322l1.068-15.428c0-0.004,0-0.006,0-0.01c0.02-0.285-0.11-0.551-0.344-0.711
		C27.793,50.48,27.673,50.439,27.55,50.423z M7.315,44.364l0.4-0.333l-0.258-0.452c-0.164-0.283-0.25-0.604-0.25-0.929
		c0-0.998,0.777-1.813,1.769-1.854l0.742-0.032l-0.174-0.727C9.515,39.915,9.5,39.794,9.5,39.68c0-0.794,0.615-1.463,1.402-1.522
		l0.564-0.043v-0.613c0.018-0.556,0.472-1,1.027-1c0.319,0,0.548,0.146,0.683,0.271l0.429,0.391l0.411-0.409
		c0.188-0.188,0.447-0.274,0.714-0.244c0.328,0.039,0.625,0.296,0.72,0.627c0.032,0.11,0.041,0.218,0.028,0.327l-0.071,0.689h0.688
		c0.881,0,1.614,0.69,1.674,1.576l0.029,0.404l0.379,0.135c0.955,0.338,1.586,1.25,1.564,2.27c-0.012,0.436-0.15,0.855-0.401,1.223
		c-0.411-0.349-0.853-0.585-1.221-0.781c-0.099-0.052-0.19-0.101-0.285-0.153c-0.024-0.015-0.056-0.04-0.067-0.105
		c-0.017-0.089,0.02-0.196,0.084-0.272c0.27-0.313,0.375-0.737,0.289-1.139l-0.076-0.34c-0.071-0.343-0.274-0.636-0.567-0.826
		c-0.294-0.188-0.644-0.252-0.981-0.178L16.35,40c0,0.002-0.002,0-0.006,0.002l-1.795,0.395l-1.752,0.386
		c-0.34,0.075-0.63,0.278-0.819,0.575c-0.188,0.295-0.251,0.646-0.177,0.99l0.038,0.166v0.002c0,0,0,0,0,0.002l0.035,0.168
		c0.09,0.409,0.372,0.756,0.757,0.922c0.095,0.041,0.175,0.119,0.203,0.199c0.017,0.045,0.007,0.068-0.029,0.127l0,0
		c-0.061,0.084-0.125,0.166-0.192,0.25c-0.067,0.088-0.136,0.178-0.208,0.271c-0.022,0.031-0.045,0.064-0.069,0.096
		c-0.05,0.07-0.102,0.141-0.152,0.215c-0.027,0.041-0.054,0.082-0.081,0.123c-0.046,0.072-0.09,0.146-0.135,0.223
		c-0.027,0.045-0.051,0.089-0.075,0.136c-0.046,0.085-0.089,0.176-0.128,0.269c-0.018,0.039-0.038,0.077-0.054,0.118
		c-0.053,0.136-0.102,0.275-0.138,0.423c-0.007,0.024-0.01,0.049-0.014,0.073c-0.03,0.126-0.054,0.256-0.068,0.392
		c-0.007,0.055-0.008,0.11-0.011,0.168c-0.006,0.071-0.015,0.141-0.015,0.217c-0.003-0.004-0.006-0.008-0.008-0.01
		c-0.009-0.012-0.018-0.021-0.024-0.031c-0.106-0.143-0.213-0.271-0.321-0.396c-0.033-0.038-0.067-0.075-0.102-0.112
		c-0.089-0.1-0.179-0.19-0.27-0.276c-0.029-0.028-0.059-0.06-0.089-0.085c-0.115-0.104-0.23-0.198-0.345-0.281
		c-0.032-0.023-0.065-0.043-0.098-0.064c-0.087-0.06-0.175-0.112-0.262-0.161c-0.043-0.023-0.085-0.046-0.129-0.067
		c-0.09-0.045-0.183-0.083-0.275-0.117c-0.029-0.01-0.061-0.025-0.091-0.035c-0.1-0.031-0.201-0.058-0.303-0.078
		c-0.011-0.002-0.023,0-0.035-0.002c-0.02-0.004-0.04-0.01-0.063-0.015c-0.07-0.01-0.137-0.007-0.208-0.011
		c-0.048-0.002-0.096-0.014-0.145-0.014c-0.014,0-0.03,0.004-0.045,0.004c-0.096,0.001-0.188,0.012-0.279,0.023
		c-0.047,0.006-0.092,0.01-0.138,0.018c-0.121,0.021-0.237,0.054-0.354,0.09c-0.018,0.006-0.034,0.01-0.052,0.016
		c-0.305,0.104-0.594,0.251-0.864,0.43c-0.056-0.14-0.085-0.287-0.085-0.44C6.879,44.932,7.039,44.594,7.315,44.364z M16.123,48.465
		c-1.01,0.721-1.759,0.913-2.998,0.732l-0.37-1.713c-0.253-1.156,0.294-1.858,0.822-2.537c0.07-0.092,0.142-0.182,0.208-0.271
		c0-0.001,0-0.001,0-0.002c0.048-0.065,0.091-0.133,0.126-0.198c0.151-0.287,0.186-0.606,0.117-0.92l2.554-0.563
		c0.018,0.079,0.035,0.156,0.063,0.23c0.115,0.281,0.319,0.517,0.604,0.68c0.096,0.053,0.189,0.104,0.291,0.158
		c0.083,0.043,0.165,0.088,0.25,0.136c0.038,0.021,0.079,0.043,0.118,0.063c0.073,0.043,0.145,0.088,0.215,0.133
		c0.06,0.037,0.121,0.076,0.179,0.117c0.068,0.047,0.135,0.1,0.197,0.152c0.059,0.047,0.111,0.1,0.167,0.15
		c0.056,0.058,0.116,0.117,0.167,0.181c0.095,0.112,0.186,0.229,0.26,0.372c-0.26,0.576-0.504,1.165-0.738,1.759
		c-0.037,0.092-0.076,0.181-0.115,0.272C17.57,47.57,16.923,47.891,16.123,48.465z M17.68,48.939
		c-0.057,0.16-0.111,0.32-0.166,0.482c-0.039,0.116-0.082,0.23-0.119,0.348c-0.182,0.547-0.354,1.101-0.512,1.658l-0.406-0.246
		c-0.502-0.304-1.063-0.455-1.625-0.455c-0.009,0-0.017,0.002-0.023,0.002c-0.066-0.002-0.133,0.006-0.196,0.01
		c-0.046,0.003-0.093,0.004-0.139,0.009c-0.334,0.034-0.662,0.12-0.975,0.261l-0.117-0.539c0.176,0.014,0.352,0.03,0.517,0.03
		c1.066,0,1.926-0.321,2.913-1.028C17.143,49.248,17.417,49.079,17.68,48.939z M13.035,42.254c-0.029-0.135,0.06-0.273,0.192-0.303
		l1.794-0.396l1.59-0.35c0.016-0.003,0.031-0.005,0.046-0.005c0.116,0,0.225,0.083,0.25,0.2c0.019,0.09-0.015,0.16-0.037,0.192
		c-0.021,0.033-0.067,0.093-0.156,0.11l-3.378,0.745C13.201,42.479,13.063,42.389,13.035,42.254z M3.385,49.48
		c0.259-0.49,0.887-0.865,1.977-1.18c0.511-0.146,0.984-0.421,1.368-0.792c0.176-0.168,0.339-0.311,0.496-0.438
		c0.494-0.403,0.919-0.625,1.303-0.674c0.008,0,0.017-0.002,0.026-0.002c0.122-0.014,0.241-0.011,0.354,0.011
		C8.939,46.41,8.97,46.421,9,46.43c0.057,0.014,0.113,0.028,0.17,0.051c0.037,0.014,0.073,0.035,0.111,0.053
		c0.053,0.025,0.106,0.05,0.159,0.082c0.042,0.025,0.083,0.058,0.125,0.087c0.05,0.034,0.099,0.065,0.15,0.106
		c0.046,0.039,0.094,0.084,0.14,0.127c0.047,0.043,0.093,0.082,0.14,0.129c0.05,0.053,0.102,0.113,0.154,0.17
		c0.042,0.049,0.084,0.093,0.126,0.144c0.059,0.07,0.118,0.149,0.176,0.228c0.038,0.051,0.073,0.095,0.112,0.146
		c0.066,0.094,0.134,0.199,0.202,0.303c0.028,0.045,0.058,0.086,0.088,0.133c0.098,0.154,0.195,0.318,0.294,0.494
		c0.451,0.801,0.599,1.983,0.403,3.014c-0.033-0.004-0.063-0.008-0.097-0.014c-0.233-0.041-0.457-0.115-0.662-0.238l-0.437-0.264
		c-0.5-0.304-1.063-0.455-1.625-0.455c-0.006,0-0.013,0.002-0.021,0.002c-0.569-0.004-1.139,0.146-1.648,0.453l-0.21,0.129
		c-0.37,0.224-0.785,0.336-1.2,0.34c-0.416-0.002-0.83-0.114-1.2-0.34l-0.822-0.498c0,0-0.001,0-0.001-0.002
		c-0.108-0.063-0.225-0.108-0.346-0.131C3.187,50.189,3.219,49.796,3.385,49.48z M25.96,66.628
		c-0.063,1.213-1.056,2.163-2.261,2.163H6.527c-1.207,0-2.198-0.95-2.26-2.174L3.248,52.044l0.533,0.321
		c0.577,0.349,1.225,0.52,1.87,0.516c0.647,0.004,1.294-0.167,1.872-0.516l0.211-0.129c0.3-0.182,0.639-0.272,0.977-0.275
		c0.337,0.003,0.675,0.094,0.977,0.275l0.436,0.265c0.551,0.334,1.177,0.476,1.795,0.442c0.055-0.002,0.11-0.002,0.165-0.008
		c0.007,0,0.012-0.004,0.021-0.004c0.417-0.048,0.827-0.18,1.204-0.396c0.036-0.014,0.075-0.016,0.107-0.034l0.437-0.265
		c0.3-0.182,0.637-0.272,0.975-0.275c0.338,0.003,0.675,0.094,0.977,0.275l0.438,0.265c0.463,0.279,0.979,0.424,1.496,0.446
		c0.011,0,0.021,0.001,0.031,0.001c0.18,0.006,0.357,0,0.535-0.025c0.104-0.013,0.199-0.039,0.299-0.062
		c0.049-0.012,0.099-0.022,0.146-0.037c0.271-0.075,0.535-0.174,0.784-0.324l0.438-0.264c0.299-0.182,0.637-0.273,0.975-0.276
		c0.339,0.002,0.676,0.095,0.979,0.276l0.436,0.264c0.504,0.305,1.072,0.456,1.639,0.453c0.008,0,0.021,0.001,0.027,0.001
		c0.552,0,1.102-0.144,1.593-0.435l1.2-0.537c0.027-0.013,0.045-0.034,0.07-0.049l0.092-0.043L25.96,66.628z M26.342,50.197
		c-0.039,0.129-0.129,0.389-0.254,0.746l-1.042,0.467c-0.024,0.01-0.045,0.021-0.065,0.035c-0.303,0.182-0.64,0.271-0.979,0.274
		c-0.337-0.003-0.673-0.093-0.977-0.274l-0.436-0.264c-0.501-0.304-1.064-0.455-1.625-0.455c-0.008,0-0.014,0-0.021,0
		c-0.568-0.002-1.139,0.146-1.647,0.455l-0.435,0.264c-0.243,0.146-0.51,0.219-0.784,0.248c0.017-0.053,0.034-0.104,0.05-0.157
		c0.169-0.574,0.348-1.142,0.537-1.702c0.07-0.213,0.145-0.425,0.221-0.637c0.156-0.445,0.321-0.885,0.492-1.322
		c0.073-0.195,0.15-0.393,0.227-0.587c0.537-1.312,1.125-2.583,1.773-3.802c0.24-0.456,0.504-1.021,0.784-1.619
		c0.92-1.967,2.181-4.661,3.637-5.419c0.532-0.276,0.993-0.282,1.402-0.023c0.711,0.448,1.127,1.581,1.106,2.373
		C28.212,42.441,27.55,46.277,26.342,50.197z"/>
	<path fill="#177F00" d="M5.673,61.507h4.281c0.338,0,0.611-0.276,0.611-0.616c0-0.343-0.273-0.617-0.611-0.617H5.673
		c-0.339,0-0.613,0.274-0.613,0.617C5.06,61.23,5.334,61.507,5.673,61.507z"/>
	<path fill="#177F00" d="M5.673,63.973h5.504c0.338,0,0.613-0.275,0.613-0.617s-0.275-0.617-0.613-0.617H5.673
		c-0.339,0-0.613,0.275-0.613,0.617S5.334,63.973,5.673,63.973z"/>
	<path fill="#177F00" d="M12.4,65.205H5.673c-0.339,0-0.613,0.275-0.613,0.617s0.274,0.615,0.613,0.615H12.4
		c0.339,0,0.612-0.273,0.612-0.615C13.013,65.48,12.739,65.205,12.4,65.205z"/>
</g>
</svg>
