<?xml version="1.0" encoding="utf-8"?>
<!-- Generator: Adobe Illustrator 16.0.0, SVG Export Plug-In . SVG Version: 6.00 Build 0)  -->
<!DOCTYPE svg PUBLIC "-//W3C//DTD SVG 1.1//EN" "http://www.w3.org/Graphics/SVG/1.1/DTD/svg11.dtd">
<svg version="1.1" id="Capa_1" xmlns="http://www.w3.org/2000/svg" xmlns:xlink="http://www.w3.org/1999/xlink" x="0px" y="0px"
	 width="19.99px" height="39.979px" viewBox="0.013 0 19.99 39.979" enable-background="new 0.013 0 19.99 39.979"
	 xml:space="preserve">
<g id="Settings">
	<g>
		<path d="M19.94,8.885c-0.031-0.281-0.359-0.492-0.643-0.492c-0.916,0-1.729-0.538-2.069-1.37
			c-0.348-0.852-0.124-1.845,0.559-2.471c0.215-0.197,0.241-0.525,0.061-0.754c-0.469-0.595-1.002-1.133-1.584-1.599
			c-0.228-0.183-0.562-0.157-0.759,0.062c-0.596,0.66-1.666,0.905-2.493,0.56c-0.86-0.362-1.403-1.234-1.35-2.17
			c0.018-0.294-0.197-0.55-0.491-0.584c-0.746-0.086-1.5-0.089-2.249-0.006c-0.29,0.032-0.504,0.282-0.495,0.572
			C8.46,1.559,7.911,2.416,7.059,2.765c-0.817,0.334-1.88,0.091-2.474-0.563C4.388,1.987,4.06,1.96,3.831,2.138
			c-0.599,0.47-1.145,1.008-1.617,1.599C2.03,3.967,2.056,4.299,2.274,4.496c0.696,0.63,0.92,1.633,0.559,2.494
			C2.488,7.812,1.635,8.342,0.657,8.342C0.341,8.331,0.115,8.544,0.08,8.832c-0.088,0.75-0.089,1.516-0.004,2.273
			c0.031,0.283,0.369,0.492,0.655,0.492c0.87-0.022,1.706,0.516,2.056,1.369c0.35,0.853,0.125,1.845-0.559,2.472
			c-0.214,0.196-0.241,0.525-0.061,0.753c0.464,0.591,0.998,1.13,1.582,1.6c0.229,0.185,0.562,0.159,0.761-0.06
			c0.598-0.662,1.667-0.906,2.492-0.561c0.862,0.361,1.405,1.232,1.352,2.169c-0.017,0.295,0.199,0.55,0.491,0.584
			c0.382,0.044,0.766,0.067,1.151,0.067c0.366,0,0.731-0.02,1.097-0.061c0.29-0.032,0.504-0.282,0.495-0.573
			c-0.033-0.926,0.517-1.783,1.368-2.131c0.823-0.336,1.881-0.09,2.475,0.563c0.198,0.215,0.524,0.241,0.754,0.063
			c0.598-0.468,1.142-1.006,1.617-1.598c0.184-0.229,0.158-0.563-0.06-0.76c-0.696-0.63-0.921-1.632-0.56-2.494
			c0.339-0.811,1.161-1.354,2.044-1.354l0.124,0.003c0.287,0.023,0.55-0.198,0.585-0.49C20.024,10.406,20.025,9.642,19.94,8.885z
			 M10.024,13.35c-1.838,0-3.333-1.496-3.333-3.334s1.495-3.334,3.333-3.334s3.334,1.496,3.334,3.334S11.862,13.35,10.024,13.35z"/>
	</g>
</g>
<g id="Settings_1_">
	<g>
		<path fill="#177F00" d="M19.94,28.875c-0.031-0.281-0.359-0.492-0.643-0.492c-0.916,0-1.729-0.538-2.069-1.37
			c-0.348-0.852-0.124-1.845,0.559-2.471c0.215-0.197,0.241-0.525,0.061-0.754c-0.469-0.595-1.002-1.133-1.584-1.599
			c-0.228-0.183-0.562-0.157-0.759,0.062c-0.596,0.66-1.666,0.905-2.493,0.56c-0.86-0.362-1.403-1.234-1.35-2.17
			c0.018-0.294-0.197-0.55-0.491-0.584c-0.746-0.086-1.5-0.089-2.249-0.006c-0.29,0.032-0.504,0.282-0.495,0.572
			c0.032,0.927-0.517,1.784-1.369,2.132c-0.817,0.334-1.88,0.091-2.474-0.563c-0.197-0.215-0.525-0.242-0.754-0.063
			c-0.599,0.47-1.145,1.008-1.617,1.599c-0.185,0.229-0.158,0.562,0.06,0.759c0.696,0.63,0.92,1.633,0.559,2.494
			c-0.345,0.822-1.198,1.351-2.175,1.351c-0.317-0.01-0.542,0.203-0.577,0.491c-0.088,0.75-0.089,1.516-0.004,2.273
			c0.031,0.283,0.369,0.492,0.655,0.492c0.87-0.022,1.706,0.516,2.056,1.369c0.35,0.853,0.125,1.845-0.559,2.472
			c-0.214,0.196-0.241,0.525-0.061,0.753c0.464,0.591,0.998,1.13,1.582,1.6c0.229,0.185,0.562,0.159,0.761-0.06
			c0.598-0.662,1.667-0.906,2.492-0.561c0.862,0.361,1.405,1.232,1.352,2.169c-0.017,0.295,0.199,0.55,0.491,0.584
			c0.382,0.044,0.766,0.067,1.151,0.067c0.366,0,0.731-0.02,1.097-0.061c0.29-0.032,0.504-0.282,0.495-0.573
			c-0.033-0.926,0.517-1.783,1.368-2.131c0.823-0.336,1.881-0.09,2.475,0.563c0.198,0.215,0.524,0.241,0.754,0.063
			c0.598-0.468,1.142-1.006,1.617-1.598c0.184-0.229,0.158-0.563-0.06-0.76c-0.696-0.63-0.921-1.632-0.56-2.494
			c0.339-0.811,1.161-1.354,2.044-1.354l0.124,0.003c0.287,0.023,0.55-0.198,0.585-0.49C20.024,30.396,20.025,29.632,19.94,28.875z
			 M10.024,33.34c-1.838,0-3.333-1.496-3.333-3.334s1.495-3.334,3.333-3.334s3.334,1.496,3.334,3.334S11.862,33.34,10.024,33.34z"/>
	</g>
</g>
</svg>
