<?xml version="1.0" encoding="utf-8"?>
<!-- Generator: Adobe Illustrator 16.0.0, SVG Export Plug-In . SVG Version: 6.00 Build 0)  -->
<!DOCTYPE svg PUBLIC "-//W3C//DTD SVG 1.1//EN" "http://www.w3.org/Graphics/SVG/1.1/DTD/svg11.dtd">
<svg version="1.1" id="Capa_1" xmlns="http://www.w3.org/2000/svg" xmlns:xlink="http://www.w3.org/1999/xlink" x="0px" y="0px"
	 width="19px" height="18px" viewBox="0.079 -0.008 19 18" enable-background="new 0.079 -0.008 19 18" xml:space="preserve">
<g>
	<path d="M18.759,3.073c-0.345-0.419-0.868-0.653-1.411-0.653H5.573c-0.337,0-0.658,0.095-0.935,0.266L4.036,0.582
		C3.937,0.238,3.624,0,3.267,0H2.352H0.606C0.273,0,0,0.269,0,0.606V0.67c0,0.333,0.269,0.606,0.606,0.606h2.29l1.168,4.131
		l1.608,5.7c-0.915,0.229-1.592,1.058-1.592,2.04c0,1.113,0.867,2.028,1.964,2.1c-0.091,0.261-0.134,0.55-0.111,0.847
		c0.08,1.006,0.899,1.818,1.906,1.886c1.2,0.083,2.202-0.871,2.202-2.052c0-0.237-0.04-0.463-0.115-0.677h2.408
		c-0.099,0.281-0.138,0.594-0.104,0.915c0.111,0.975,0.915,1.743,1.898,1.814c1.2,0.083,2.206-0.867,2.206-2.052
		c0-1.145-0.951-2.06-2.091-2.06H6.198c-0.392,0-0.725-0.305-0.74-0.693c-0.016-0.412,0.313-0.748,0.721-0.748h1.208h6.547h1.842
		c0.816,0,1.529-0.559,1.727-1.352l1.601-6.44C19.242,4.08,19.115,3.514,18.759,3.073z M14.279,15.246
		c0.372,0,0.677,0.305,0.677,0.677c0,0.372-0.305,0.677-0.677,0.677c-0.373,0-0.678-0.305-0.678-0.677
		C13.601,15.551,13.903,15.246,14.279,15.246z M7.985,15.246c0.372,0,0.677,0.305,0.677,0.677c0,0.372-0.305,0.677-0.677,0.677
		c-0.373,0-0.678-0.305-0.678-0.677C7.307,15.551,7.609,15.246,7.985,15.246z M5.497,5.399L5.188,4.31
		c-0.047-0.167,0.02-0.29,0.067-0.348C5.3,3.902,5.403,3.802,5.573,3.802h1.291l0.353,1.601h-1.72V5.399L5.497,5.399z M5.885,6.778
		h1.632l0.325,1.481H6.302L5.885,6.778z M7.387,11.039c-0.178,0-0.337-0.119-0.384-0.293L6.69,9.637h1.454l0.31,1.398H7.387V11.039z
		 M10.837,11.039H9.862L9.553,9.641h1.279v1.398H10.837z M10.837,8.259H9.253L8.927,6.778h1.909V8.259z M10.837,5.399h-2.21
		L8.274,3.799h2.563V5.399z M13.308,11.039h-1.089V9.641h1.382L13.308,11.039z M13.895,8.259h-1.676V6.778h1.988L13.895,8.259z
		 M12.219,5.399V3.799h2.614l-0.336,1.601H12.219z M16.168,10.739c-0.044,0.178-0.202,0.305-0.388,0.305h-1.061l0.297-1.398h1.426
		L16.168,10.739z M16.782,8.259h-1.478l0.313-1.481h1.533L16.782,8.259z M17.764,4.294l-0.273,1.101h-1.584l0.336-1.6h1.133
		c0.17,0,0.269,0.095,0.313,0.155C17.736,4.009,17.808,4.131,17.764,4.294z"/>
</g>
</svg>
