<?xml version="1.0" encoding="utf-8"?>
<!-- Generator: Adobe Illustrator 16.0.0, SVG Export Plug-In . SVG Version: 6.00 Build 0)  -->
<!DOCTYPE svg PUBLIC "-//W3C//DTD SVG 1.1//EN" "http://www.w3.org/Graphics/SVG/1.1/DTD/svg11.dtd">
<svg version="1.1" id="Capa_1" xmlns="http://www.w3.org/2000/svg" xmlns:xlink="http://www.w3.org/1999/xlink" x="0px" y="0px"
	 width="31px" height="70px" viewBox="-0.524 0 31 70" enable-background="new -0.524 0 31 70" xml:space="preserve">
<g>
	<g>
		<path fill="#010002" d="M22.516,7.081c0.03-1.726-0.676-3.382-2.034-4.7c-1.375-1.334-3.265-2.166-5.319-2.344
			c-4.443-0.39-8.192,2.364-8.515,6.082C6.634,6.271,6.636,6.422,6.635,6.573l-2.49-0.079L-0.47,31.852l26.764,3.169L25,7.161
			L22.516,7.081z M18.063,2.364c0.17-0.289,0.62-0.455,0.914-0.239c0.893,0.656,1.619,1.476,2.129,2.464
			c0.395,0.764-0.758,1.439-1.152,0.673c-0.399-0.776-0.943-1.465-1.651-1.985C18.011,3.063,17.866,2.703,18.063,2.364z
			 M9.972,6.407c0.148-1.721,2.07-3.07,4.373-3.07c0.176,0,0.352,0.009,0.529,0.023c1.293,0.112,2.458,0.615,3.282,1.415
			c0.668,0.648,1.023,1.421,1.027,2.199L9.966,6.68C9.964,6.59,9.962,6.499,9.972,6.407z M7.535,22.501
			c-0.422,0.313-0.999,0.445-1.73,0.396c-0.745-0.049-1.321-0.255-1.727-0.617c-0.405-0.362-0.589-0.834-0.551-1.418l1.132,0.075
			c0.019,0.259,0.078,0.455,0.178,0.589c0.181,0.244,0.51,0.381,0.986,0.413c0.284,0.019,0.519,0.004,0.699-0.045
			c0.347-0.095,0.529-0.301,0.551-0.618c0.013-0.185-0.061-0.334-0.219-0.446c-0.159-0.11-0.416-0.215-0.77-0.315L5.479,20.34
			c-0.594-0.172-0.999-0.343-1.214-0.513c-0.365-0.284-0.529-0.702-0.493-1.252c0.034-0.502,0.248-0.908,0.645-1.216
			c0.396-0.307,0.955-0.438,1.679-0.39c0.605,0.04,1.11,0.231,1.517,0.573s0.6,0.812,0.581,1.409l-1.139-0.075
			c0.002-0.339-0.135-0.589-0.409-0.75c-0.183-0.106-0.415-0.169-0.697-0.188c-0.312-0.021-0.565,0.024-0.761,0.134
			s-0.299,0.273-0.313,0.492c-0.014,0.2,0.068,0.356,0.246,0.467c0.114,0.074,0.359,0.168,0.738,0.282l0.978,0.299
			c0.43,0.13,0.748,0.287,0.954,0.472c0.32,0.286,0.465,0.679,0.431,1.18C8.188,21.777,7.958,22.189,7.535,22.501z M12.624,23.204
			l-0.298-1.179l-2.087-0.138l-0.462,1.128L8.54,22.933l2.395-5.479l1.34,0.088l1.633,5.746L12.624,23.204z M18.642,23.602
			l-4.013-0.266l0.372-5.613l1.185,0.078l-0.306,4.604l2.829,0.188L18.642,23.602z M23.935,19.313l-2.998-0.198l-0.079,1.192
			l2.753,0.182l-0.065,0.975l-2.752-0.183l-0.096,1.443l3.139,0.208l-0.067,1.009l-4.295-0.285l0.371-5.613l4.157,0.275
			L23.935,19.313z"/>
		<polygon fill="#010002" points="10.625,20.941 12.076,21.037 11.506,18.781 		"/>
		<polygon fill="#010002" points="30.476,28.955 25.536,7.217 27.204,34.02 30.288,29.598 27.977,29.165 28.1,28.51 		"/>
	</g>
</g>
<g>
	<g>
		<path fill="#177F00" d="M22.516,42.103c0.03-1.726-0.676-3.382-2.034-4.7c-1.375-1.334-3.265-2.166-5.319-2.344
			c-4.443-0.39-8.192,2.364-8.515,6.083c-0.014,0.152-0.012,0.303-0.013,0.453l-2.49-0.078L-0.47,66.873l26.764,3.17L25,42.183
			L22.516,42.103z M18.063,37.386c0.17-0.288,0.62-0.454,0.914-0.239c0.893,0.656,1.619,1.476,2.129,2.464
			c0.395,0.764-0.758,1.438-1.152,0.673c-0.399-0.775-0.943-1.465-1.651-1.984C18.011,38.084,17.866,37.725,18.063,37.386z
			 M9.972,41.429c0.148-1.721,2.07-3.069,4.373-3.069c0.176,0,0.352,0.008,0.529,0.022c1.293,0.112,2.458,0.614,3.282,1.415
			c0.668,0.648,1.023,1.422,1.027,2.199l-9.218-0.295C9.964,41.611,9.962,41.52,9.972,41.429z M7.535,57.523
			c-0.422,0.313-0.999,0.444-1.73,0.396c-0.745-0.049-1.321-0.255-1.727-0.617s-0.589-0.835-0.551-1.419l1.132,0.075
			c0.019,0.259,0.078,0.455,0.178,0.589c0.181,0.244,0.51,0.382,0.986,0.414c0.284,0.018,0.519,0.004,0.699-0.046
			c0.347-0.095,0.529-0.301,0.551-0.618c0.013-0.186-0.061-0.334-0.219-0.446c-0.159-0.11-0.416-0.216-0.77-0.315l-0.605-0.174
			c-0.594-0.172-0.999-0.343-1.214-0.513c-0.365-0.284-0.529-0.702-0.493-1.253c0.034-0.502,0.248-0.908,0.645-1.215
			c0.396-0.308,0.955-0.438,1.679-0.391c0.605,0.041,1.11,0.231,1.517,0.573s0.6,0.812,0.581,1.409l-1.139-0.075
			c0.002-0.339-0.135-0.589-0.409-0.75c-0.183-0.106-0.415-0.169-0.697-0.188c-0.312-0.02-0.565,0.025-0.761,0.135
			s-0.299,0.273-0.313,0.492c-0.014,0.199,0.068,0.355,0.246,0.467c0.114,0.074,0.359,0.168,0.738,0.282l0.978,0.299
			c0.43,0.13,0.748,0.287,0.954,0.472c0.32,0.287,0.465,0.68,0.431,1.18C8.188,56.799,7.958,57.211,7.535,57.523z M12.624,58.225
			l-0.298-1.179l-2.087-0.138l-0.462,1.129L8.54,57.955l2.395-5.479l1.34,0.089l1.633,5.745L12.624,58.225z M18.642,58.623
			l-4.013-0.266l0.372-5.613l1.185,0.078l-0.306,4.604l2.829,0.188L18.642,58.623z M23.935,54.334l-2.998-0.197l-0.079,1.191
			l2.753,0.182l-0.065,0.976l-2.752-0.183l-0.096,1.443l3.139,0.209l-0.067,1.008l-4.295-0.284l0.371-5.612l4.157,0.274
			L23.935,54.334z"/>
		<polygon fill="#177F00" points="10.625,55.963 12.076,56.059 11.506,53.803 		"/>
		<polygon fill="#177F00" points="30.476,63.977 25.536,42.238 27.204,69.041 30.288,64.619 27.977,64.187 28.1,63.531 		"/>
	</g>
</g>
</svg>
