<?xml version="1.0" encoding="utf-8"?>
<!-- Generator: Adobe Illustrator 16.0.0, SVG Export Plug-In . SVG Version: 6.00 Build 0)  -->
<!DOCTYPE svg PUBLIC "-//W3C//DTD SVG 1.1//EN" "http://www.w3.org/Graphics/SVG/1.1/DTD/svg11.dtd">
<svg version="1.1" id="Capa_1" xmlns="http://www.w3.org/2000/svg" xmlns:xlink="http://www.w3.org/1999/xlink" x="0px" y="0px"
	 width="20px" height="30px" viewBox="0.005 0.01 20 30" enable-background="new 0.005 0.01 20 30" xml:space="preserve">
<g>
	<g id="Wi-Fi">
		<g>
			<path d="M10.005,11.152c-1.009,0-1.828,0.818-1.828,1.827c0,1.009,0.819,1.828,1.828,1.828c1.008,0,1.827-0.818,1.827-1.828
				C11.832,11.97,11.013,11.152,10.005,11.152z M19.796,4.762c-2.444-2.908-6.013-4.575-9.791-4.575
				c-3.779,0-7.347,1.667-9.792,4.575C-0.111,5.149-0.061,5.725,0.326,6.05c0.171,0.143,0.379,0.214,0.586,0.214
				c0.261,0,0.519-0.111,0.7-0.326c2.096-2.493,5.155-3.923,8.393-3.923c3.237,0,6.296,1.43,8.392,3.923
				c0.181,0.215,0.439,0.326,0.701,0.326c0.208,0,0.416-0.07,0.587-0.214C20.071,5.725,20.121,5.148,19.796,4.762z M10.005,3.842
				c-2.699,0-5.248,1.191-6.994,3.267C2.687,7.496,2.737,8.072,3.124,8.397C3.295,8.54,3.503,8.611,3.711,8.611
				c0.261,0,0.52-0.111,0.7-0.326C5.808,6.623,7.846,5.67,10.005,5.67c2.158,0,4.197,0.953,5.595,2.615
				c0.181,0.216,0.439,0.326,0.7,0.326c0.208,0,0.417-0.07,0.587-0.214c0.387-0.325,0.437-0.902,0.112-1.288
				C15.252,5.033,12.704,3.842,10.005,3.842z M10.005,7.497c-1.621,0-3.15,0.714-4.196,1.96c-0.325,0.387-0.275,0.963,0.112,1.287
				c0.17,0.144,0.379,0.215,0.587,0.215c0.261,0,0.519-0.111,0.7-0.326c0.698-0.831,1.718-1.309,2.797-1.309
				c1.079,0,2.098,0.478,2.797,1.309c0.181,0.215,0.439,0.326,0.7,0.326c0.208,0,0.417-0.07,0.587-0.215
				c0.387-0.324,0.437-0.9,0.112-1.287C13.155,8.211,11.625,7.497,10.005,7.497z"/>
		</g>
	</g>
</g>
<g>
	<g id="Wi-Fi_1_">
		<g>
			<path fill="#177F00" d="M10.005,26.177c-1.009,0-1.828,0.818-1.828,1.827c0,1.009,0.819,1.828,1.828,1.828
				c1.008,0,1.827-0.818,1.827-1.828C11.832,26.995,11.013,26.177,10.005,26.177z M19.796,19.788
				c-2.444-2.908-6.013-4.575-9.791-4.575c-3.779,0-7.347,1.667-9.792,4.575c-0.325,0.386-0.275,0.962,0.112,1.288
				c0.171,0.143,0.379,0.214,0.586,0.214c0.261,0,0.519-0.111,0.7-0.326c2.096-2.493,5.155-3.923,8.393-3.923
				c3.237,0,6.296,1.43,8.392,3.923c0.181,0.215,0.439,0.326,0.701,0.326c0.208,0,0.416-0.07,0.587-0.214
				C20.071,20.75,20.121,20.174,19.796,19.788z M10.005,18.867c-2.699,0-5.248,1.191-6.994,3.267
				c-0.325,0.387-0.275,0.962,0.112,1.288c0.171,0.144,0.379,0.214,0.587,0.214c0.261,0,0.52-0.111,0.7-0.326
				c1.397-1.662,3.436-2.615,5.595-2.615c2.158,0,4.197,0.953,5.595,2.615c0.181,0.216,0.439,0.326,0.7,0.326
				c0.208,0,0.417-0.07,0.587-0.214c0.387-0.325,0.437-0.902,0.112-1.288C15.252,20.059,12.704,18.867,10.005,18.867z
				 M10.005,22.522c-1.621,0-3.15,0.714-4.196,1.96c-0.325,0.387-0.275,0.963,0.112,1.287c0.17,0.144,0.379,0.215,0.587,0.215
				c0.261,0,0.519-0.111,0.7-0.326c0.698-0.831,1.718-1.309,2.797-1.309c1.079,0,2.098,0.478,2.797,1.309
				c0.181,0.215,0.439,0.326,0.7,0.326c0.208,0,0.417-0.07,0.587-0.215c0.387-0.324,0.437-0.9,0.112-1.287
				C13.155,23.237,11.625,22.522,10.005,22.522z"/>
		</g>
	</g>
</g>
</svg>
